<?xml version="1.0" encoding="UTF-8"?>
<svg version="1.1" xmlns="http://www.w3.org/2000/svg" width="32" height="32">
<path d="M0 0 C4.65116794 2.29576879 7.35304282 5.4521109 9.078125 10.33984375 C9.72092158 15.57404446 8.93087718 18.91315933 6.078125 23.33984375 C1.15167668 27.78566296 -1.8732628 28.69071357 -8.37890625 28.625 C-13.02409272 28.10411119 -15.74332566 25.68095162 -18.734375 22.27734375 C-21.16658236 18.30900543 -21.30216459 14.90331887 -20.921875 10.33984375 C-19.22788299 5.45175838 -16.47831288 2.28757271 -11.84375 0 C-7.74260235 -1.40872755 -4.10114765 -1.40872755 0 0 Z M-6.921875 12.33984375 C-6.921875 12.99984375 -6.921875 13.65984375 -6.921875 14.33984375 C-6.261875 14.33984375 -5.601875 14.33984375 -4.921875 14.33984375 C-4.921875 13.67984375 -4.921875 13.01984375 -4.921875 12.33984375 C-5.581875 12.33984375 -6.241875 12.33984375 -6.921875 12.33984375 Z " fill="#546653" transform="translate(21.921875,1.66015625)"/>
<path d="M0 0 C4.65116794 2.29576879 7.35304282 5.4521109 9.078125 10.33984375 C9.72092158 15.57404446 8.93087718 18.91315933 6.078125 23.33984375 C1.15167668 27.78566296 -1.8732628 28.69071357 -8.37890625 28.625 C-13.02409272 28.10411119 -15.74332566 25.68095162 -18.734375 22.27734375 C-21.16658236 18.30900543 -21.30216459 14.90331887 -20.921875 10.33984375 C-19.22788299 5.45175838 -16.47831288 2.28757271 -11.84375 0 C-7.74260235 -1.40872755 -4.10114765 -1.40872755 0 0 Z M-12.921875 3.33984375 C-12.591875 5.64984375 -12.261875 7.95984375 -11.921875 10.33984375 C-12.911875 9.01984375 -13.901875 7.69984375 -14.921875 6.33984375 C-17.21201153 9.77504855 -17.10030473 11.32517475 -16.921875 15.33984375 C-15.931875 15.00984375 -14.941875 14.67984375 -13.921875 14.33984375 C-14.911875 15.65984375 -15.901875 16.97984375 -16.921875 18.33984375 C-16.591875 18.99984375 -16.261875 19.65984375 -15.921875 20.33984375 C-14.931875 20.33984375 -13.941875 20.33984375 -12.921875 20.33984375 C-13.251875 21.32984375 -13.581875 22.31984375 -13.921875 23.33984375 C-12.271875 23.66984375 -10.621875 23.99984375 -8.921875 24.33984375 C-8.921875 25.32984375 -8.921875 26.31984375 -8.921875 27.33984375 C-6.941875 27.33984375 -4.961875 27.33984375 -2.921875 27.33984375 C-2.921875 26.34984375 -2.921875 25.35984375 -2.921875 24.33984375 C-0.611875 23.67984375 1.698125 23.01984375 4.078125 22.33984375 C4.99945932 16.35117065 5.57582693 11.9596731 3.078125 6.33984375 C2.088125 7.65984375 1.098125 8.97984375 0.078125 10.33984375 C0.408125 8.02984375 0.738125 5.71984375 1.078125 3.33984375 C-1.59831457 2.44769723 -3.17571878 2.20444164 -5.921875 2.21484375 C-6.6025 2.21226563 -7.283125 2.2096875 -7.984375 2.20703125 C-10.14062281 2.27353249 -10.14062281 2.27353249 -12.921875 3.33984375 Z " fill="#3F5141" transform="translate(21.921875,1.66015625)"/>
<path d="M0 0 C1.8871875 0.0309375 1.8871875 0.0309375 3.8125 0.0625 C3.8125 1.7125 3.8125 3.3625 3.8125 5.0625 C2.8225 4.7325 1.8325 4.4025 0.8125 4.0625 C0.8125 4.7225 0.8125 5.3825 0.8125 6.0625 C0.1525 6.0625 -0.5075 6.0625 -1.1875 6.0625 C-1.1875 5.4025 -1.1875 4.7425 -1.1875 4.0625 C-2.1775 4.5575 -2.1775 4.5575 -3.1875 5.0625 C-3.0225 5.64 -2.8575 6.2175 -2.6875 6.8125 C-2.1875 9.0625 -2.1875 9.0625 -2.1875 13.0625 C-0.8675 13.3925 0.4525 13.7225 1.8125 14.0625 C0.1625 14.7225 -1.4875 15.3825 -3.1875 16.0625 C-2.5275 16.7225 -1.8675 17.3825 -1.1875 18.0625 C-1.1875 17.4025 -1.1875 16.7425 -1.1875 16.0625 C-0.5275 16.0625 0.1325 16.0625 0.8125 16.0625 C0.8125 16.7225 0.8125 17.3825 0.8125 18.0625 C1.4725 18.0625 2.1325 18.0625 2.8125 18.0625 C2.1525 19.3825 1.4925 20.7025 0.8125 22.0625 C-2.1575 21.7325 -5.1275 21.4025 -8.1875 21.0625 C-7.8575 20.0725 -7.5275 19.0825 -7.1875 18.0625 C-8.1775 18.0625 -9.1675 18.0625 -10.1875 18.0625 C-10.5175 17.0725 -10.8475 16.0825 -11.1875 15.0625 C-10.1975 14.0725 -9.2075 13.0825 -8.1875 12.0625 C-9.1775 12.3925 -10.1675 12.7225 -11.1875 13.0625 C-11.55673077 7.52403846 -11.55673077 7.52403846 -9.6875 5.1875 C-9.1925 4.81625 -8.6975 4.445 -8.1875 4.0625 C-7.5275 5.3825 -6.8675 6.7025 -6.1875 8.0625 C-6.5175 5.7525 -6.8475 3.4425 -7.1875 1.0625 C-4.43671116 0.14557039 -2.82801087 -0.04636083 0 0 Z " fill="#667560" transform="translate(16.1875,3.9375)"/>
<path d="M0 0 C3.45103082 1.8420059 6.35612533 3.67441429 8.0390625 7.23828125 C8.40598336 10.7136449 8.63640595 14.04359435 7.0390625 17.23828125 C6.0490625 17.23828125 5.0590625 17.23828125 4.0390625 17.23828125 C4.6990625 15.58828125 5.3590625 13.93828125 6.0390625 12.23828125 C5.3790625 11.90828125 4.7190625 11.57828125 4.0390625 11.23828125 C3.7090625 10.24828125 3.3790625 9.25828125 3.0390625 8.23828125 C2.7503125 8.87765625 2.4615625 9.51703125 2.1640625 10.17578125 C1.0390625 12.23828125 1.0390625 12.23828125 -0.9609375 13.23828125 C-1.18130614 9.38183004 -0.56448851 6.74604909 1.0390625 3.23828125 C0.3790625 3.23828125 -0.2809375 3.23828125 -0.9609375 3.23828125 C-1.2909375 3.89828125 -1.6209375 4.55828125 -1.9609375 5.23828125 C-1.9609375 4.24828125 -1.9609375 3.25828125 -1.9609375 2.23828125 C-4.6009375 2.23828125 -7.2409375 2.23828125 -9.9609375 2.23828125 C-10.2909375 3.22828125 -10.6209375 4.21828125 -10.9609375 5.23828125 C-10.9609375 4.57828125 -10.9609375 3.91828125 -10.9609375 3.23828125 C-12.9409375 4.22828125 -14.9209375 5.21828125 -16.9609375 6.23828125 C-16.8359375 4.42578125 -16.8359375 4.42578125 -15.9609375 2.23828125 C-11.02817839 -1.13043229 -5.61292719 -2.18032032 0 0 Z " fill="#425545" transform="translate(21.9609375,1.76171875)"/>
<path d="M0 0 C0.33 0 0.66 0 1 0 C1.315109 5.2518167 0.8689708 8.54814877 -2 13 C-6.02173485 16.62937047 -8.49623529 18.15423564 -13.875 18.25 C-14.73867187 18.27578125 -15.60234375 18.3015625 -16.4921875 18.328125 C-19.45024649 17.94108924 -20.79201784 16.95124005 -23 15 C-21.02 14.67 -19.04 14.34 -17 14 C-17 14.99 -17 15.98 -17 17 C-15.02 17 -13.04 17 -11 17 C-11 16.01 -11 15.02 -11 14 C-10.360625 13.896875 -9.72125 13.79375 -9.0625 13.6875 C-8.381875 13.460625 -7.70125 13.23375 -7 13 C-6.67 12.01 -6.34 11.02 -6 10 C-6 10.66 -6 11.32 -6 12 C-5.34 12 -4.68 12 -4 12 C-4 10.35 -4 8.7 -4 7 C-3.01 7 -2.02 7 -1 7 C-0.67 4.69 -0.34 2.38 0 0 Z " fill="#415444" transform="translate(30,12)"/>
<path d="M0 0 C0.66 0 1.32 0 2 0 C2 0.99 2 1.98 2 3 C3.32 3.33 4.64 3.66 6 4 C4.35 4.66 2.7 5.32 1 6 C1.66 6.66 2.32 7.32 3 8 C3 7.34 3 6.68 3 6 C3.66 6 4.32 6 5 6 C5 6.66 5 7.32 5 8 C5.66 8 6.32 8 7 8 C6.34 9.32 5.68 10.64 5 12 C2.03 11.67 -0.94 11.34 -4 11 C-2.95902388 7.13351728 -1.96301592 3.50538557 0 0 Z " fill="#596956" transform="translate(12,14)"/>
<path d="M0 0 C2.88250984 2.38120378 3.61038985 4.29870356 4 8 C3.67 8.33 3.34 8.66 3 9 C2.63239269 11.32817964 2.29758419 13.6618385 2 16 C-0.31 16.66 -2.62 17.32 -5 18 C-4.505 16.989375 -4.01 15.97875 -3.5 14.9375 C-1.87204871 11.19699796 -1.92308587 8.07644904 -2 4 C-1 1.5625 -1 1.5625 0 0 Z " fill="#6F7D68" transform="translate(24,8)"/>
<path d="M0 0 C1.66666667 0 3.33333333 0 5 0 C6.0625 1.8125 6.0625 1.8125 7 4 C6.67 4.99 6.34 5.98 6 7 C5.01 6.01 4.02 5.02 3 4 C2.01 5.485 2.01 5.485 1 7 C0.34 7 -0.32 7 -1 7 C-1 8.98 -1 10.96 -1 13 C-1.66 13 -2.32 13 -3 13 C-3.31563182 7.73946963 -2.66590937 4.55426184 0 0 Z " fill="#3E5041" transform="translate(4,6)"/>
<path d="M0 0 C0.66 0.66 1.32 1.32 2 2 C-1.3 2.33 -4.6 2.66 -8 3 C-8.33 3.99 -8.66 4.98 -9 6 C-9 5.34 -9 4.68 -9 4 C-10.98 4.99 -12.96 5.98 -15 7 C-14.875 5.1875 -14.875 5.1875 -14 3 C-9.26459897 -0.23393241 -5.53534283 -0.46127857 0 0 Z " fill="#4B5C4B" transform="translate(20,1)"/>
<path d="M0 0 C2.64 0 5.28 0 8 0 C8 1.65 8 3.3 8 5 C7.01 4.67 6.02 4.34 5 4 C5 4.66 5 5.32 5 6 C4.34 6 3.68 6 3 6 C3 5.34 3 4.68 3 4 C2.01 4.33 1.02 4.66 0 5 C0 3.35 0 1.7 0 0 Z " fill="#75836D" transform="translate(12,4)"/>
<path d="M0 0 C0 0.99 0 1.98 0 3 C1.98 3 3.96 3 6 3 C6 2.01 6 1.02 6 0 C8.97 0.495 8.97 0.495 12 1 C8.95464354 3.6646869 7.03928889 4.41194472 3 4.375 C2.154375 4.38273437 1.30875 4.39046875 0.4375 4.3984375 C-2.43365432 3.9291142 -3.83441027 2.89489101 -6 1 C-3 0 -3 0 0 0 Z " fill="#2F4335" transform="translate(13,26)"/>
<path d="M0 0 C0.66 0 1.32 0 2 0 C2 0.66 2 1.32 2 2 C2.66 2 3.32 2 4 2 C4 1.34 4 0.68 4 0 C4.99 0.33 5.98 0.66 7 1 C6.67 1.5775 6.34 2.155 6 2.75 C4.72924102 5.19883862 4.72924102 5.19883862 5 9 C3.68 9 2.36 9 1 9 C1 7.68 1 6.36 1 5 C0.34 4.67 -0.32 4.34 -1 4 C-0.34 4 0.32 4 1 4 C1 3.34 1 2.68 1 2 C0.34 1.67 -0.32 1.34 -1 1 C-0.67 0.67 -0.34 0.34 0 0 Z M2 6 C2 6.66 2 7.32 2 8 C2.66 8 3.32 8 4 8 C4 7.34 4 6.68 4 6 C3.34 6 2.68 6 2 6 Z " fill="#405243" transform="translate(13,8)"/>
<path d="M0 0 C0.66 0 1.32 0 2 0 C2 0.66 2 1.32 2 2 C2.66 2 3.32 2 4 2 C3.34 3.32 2.68 4.64 2 6 C-0.97 5.67 -3.94 5.34 -7 5 C-6.34 4.01 -5.68 3.02 -5 2 C-4.01 2.66 -3.02 3.32 -2 4 C-2 3.34 -2 2.68 -2 2 C-1.34 2 -0.68 2 0 2 C0 1.34 0 0.68 0 0 Z " fill="#73806A" transform="translate(15,20)"/>
<path d="M0 0 C0.33 0.66 0.66 1.32 1 2 C2.32 1.67 3.64 1.34 5 1 C5.93065133 3.60582371 6.14917407 4.64198224 5.0625 7.25 C4.711875 7.8275 4.36125 8.405 4 9 C3.01 9 2.02 9 1 9 C0.67 8.01 0.34 7.02 0 6 C0.99 5.01 1.98 4.02 3 3 C2.01 3.33 1.02 3.66 0 4 C0 2.68 0 1.36 0 0 Z " fill="#77856E" transform="translate(5,13)"/>
<path d="M0 0 C0.66 0.33 1.32 0.66 2 1 C1.34 2.65 0.68 4.3 0 6 C-1.98 6 -3.96 6 -6 6 C-6 4.68 -6 3.36 -6 2 C-4.7934375 1.7834375 -4.7934375 1.7834375 -3.5625 1.5625 C-1.07896294 1.25864751 -1.07896294 1.25864751 0 0 Z " fill="#576855" transform="translate(19,23)"/>
<path d="M0 0 C0.66 0 1.32 0 2 0 C2.33 0.99 2.66 1.98 3 3 C3.66 3 4.32 3 5 3 C4.67 3.99 4.34 4.98 4 6 C1.4375 7.1875 1.4375 7.1875 -1 8 C-0.67 5.36 -0.34 2.72 0 0 Z " fill="#4F6150" transform="translate(3,13)"/>
<path d="M0 0 C0.70125 0.00515625 1.4025 0.0103125 2.125 0.015625 C2.82625 0.01046875 3.5275 0.0053125 4.25 0 C6.125 0.265625 6.125 0.265625 8.125 2.265625 C3.8085078 3.02735892 0.38066547 3.42626104 -3.875 2.265625 C-1.875 0.265625 -1.875 0.265625 0 0 Z " fill="#5D6C5A" transform="translate(13.875,0.734375)"/>
<path d="M0 0 C1.5625 1.8125 1.5625 1.8125 3 4 C2.67 4.99 2.34 5.98 2 7 C1.01 7 0.02 7 -1 7 C-1.625 5.1875 -1.625 5.1875 -2 3 C-1.34 2.01 -0.68 1.02 0 0 Z " fill="#6D7B65" transform="translate(7,8)"/>
<path d="M0 0 C0.33 0 0.66 0 1 0 C1.17835515 4.54805635 0.99785435 7.8794254 -1 12 C-1.66 11.67 -2.32 11.34 -3 11 C-2.01 7.37 -1.02 3.74 0 0 Z " fill="#3B4B3D" transform="translate(30,12)"/>
</svg>
